# xmcd
#
# Track frame offsets: 
#        150
#        11293
#        23658
#        38938
#        55460
#        70150
#        85085
#        100508
#        114758
#        131680
#        148950
#        165300
#        178558
#        193695
#        209163
#        221458
#        232393
#        244113
#        253903
#        265838
#        278335
#        290128
#        306308
#        323878
#
# Disc length: 4507 seconds
#
# Revision: 2
# Processed by: cddbd v1.5.2PL0 Copyright (c) Steve Scherf et al.
# Submitted via: ExactAudioCopy v1.0b3
#
DISCID=64119918
DTITLE=山本まさゆき - タイムボカン ソングコレクション
DYEAR=2005
DGENRE=Anime
TTITLE0=山本まさゆき、サカモト児童合唱団 - タイムボカン
TTITLE1=ロイヤル・ナイツ - それゆけガイコッツ
TTITLE2=山本まさゆき、少年少女合唱団みずうみ - ヤッターマンの歌
TTITLE3=小原乃梨子、八奈見乗児、立壁和也 - 天才ドロンボー
TTITLE4=山本まさゆき、スクールメイツ・ブラザーズ - ヤッターキング
TTITLE5=小原乃梨子、八奈見乗児、立壁和也、滝口順平 - ドロンボーのシラーケッ
TTITLE6=藤井健 - ゼンダマンの歌
TTITLE7=これまたアクダマン
TTITLE8=ゼンダライオン
TTITLE9=三ツ矢雄二、滝沢久美子 - わすれっこなしよ
TTITLE10=山本まさゆき、少年少女合唱団みずうみ - オタスケマンの歌
TTITLE11=山本まさゆき、小原乃梨子、八奈見乗児、立壁和也 - アーウー・オジャママン
TTITLE12=ロイヤル・ナイツ - 進め!タイムパトロール隊
TTITLE13=トッシュ - がんばれオジャママン
TTITLE14=鈴木ヒロミツ - ヤットデタマンの歌
TTITLE15=山本まさゆき、ピンク・ピッギーズ - ヤットデタマン・ブギウギ・レディ
TTITLE16=山本まさゆき、ピンク・ピッギーズ - 逆転イッパツマン
TTITLE17=山本まさゆき、ピンク・ピッギーズ - シビビーン・ラプソディー
TTITLE18=山本まさゆき、ピンク・ピッギーズ - トッキューザウルスの歌
TTITLE19=嗚呼!逆転王
TTITLE20=田中真弓 - いただきマンボ
TTITLE21=きたむらけん - どびびぃ～んセレナーデ
TTITLE22=山本まさゆき、ピンク・ピッギーズ - 怪盗きらめきマンの歌
TTITLE23=甲本ヒロト&ピンク・ピッギーズ - フララン ランデブー
EXTD=YEAR: 2005
EXTT0=
EXTT1=
EXTT2=
EXTT3=
EXTT4=
EXTT5=
EXTT6=
EXTT7=
EXTT8=
EXTT9=
EXTT10=
EXTT11=
EXTT12=
EXTT13=
EXTT14=
EXTT15=
EXTT16=
EXTT17=
EXTT18=
EXTT19=
EXTT20=
EXTT21=
EXTT22=
EXTT23=
PLAYORDER=
